 <svg  version="1.0" xmlns="http://www.w3.org/2000/svg"  width="1011.000000pt" height="1116.000000pt" viewBox="0 0 1011.000000 1116.000000"  preserveAspectRatio="xMidYMid meet">  <g transform="translate(0.000000,1116.000000) scale(0.100000,-0.100000)" fill="#6ecaff" stroke="none"> <path d="M5025 9730 c-201 -13 -349 -153 -411 -389 -42 -157 11 -316 145 -444 121 -115 246 -165 386 -154 78 6 157 33 223 78 23 16 47 29 51 29 19 0 126 128 150 179 24 52 26 65 25 191 -1 164 -15 220 -83 322 -104 156 -229 204 -486 188z"/> <path d="M5808 9102 c-18 -3 -34 -51 -21 -62 4 -4 42 -15 83 -24 96 -23 172 -40 285 -66 97 -23 173 -47 190 -59 5 -5 19 -11 30 -14 121 -34 689 -313 752 -369 10 -9 37 -26 61 -38 41 -22 44 -22 62 -5 11 10 20 23 19 29 0 18 -244 173 -389 249 -296 155 -969 381 -1072 359z"/> <path d="M4270 9079 c-47 -10 -155 -40 -240 -65 -137 -42 -183 -58 -305 -109 -16 -7 -57 -22 -90 -33 -87 -30 -279 -117 -344 -156 -31 -19 -78 -46 -106 -61 -66 -36 -211 -133 -226 -151 -9 -11 -8 -20 6 -40 20 -31 22 -30 122 38 86 57 198 119 373 204 99 48 149 72 265 124 11 5 49 19 85 30 36 12 74 25 85 30 64 29 113 43 282 85 103 26 196 49 206 51 31 9 15 76 -17 73 -6 -1 -49 -10 -96 -20z"/> <path d="M2201 8581 c-221 -83 -366 -302 -347 -526 5 -71 32 -171 53 -196 6 -8 23 -32 37 -54 65 -97 161 -171 259 -199 80 -23 255 -24 320 -2 131 45 214 123 289 271 l50 100 -4 115 c-3 114 -4 116 -49 210 -47 95 -119 194 -151 205 -9 3 -32 17 -52 30 -53 36 -127 54 -245 60 -90 5 -114 3 -160 -14z"/> <path d="M7770 8594 c-14 -3 -39 -12 -57 -20 -17 -8 -33 -14 -36 -14 -21 0 -136 -82 -176 -126 -85 -93 -119 -182 -128 -331 -5 -90 -3 -110 17 -170 54 -159 183 -293 316 -327 122 -31 307 -16 405 34 20 11 72 57 116 105 172 183 202 346 104 558 -66 144 -172 246 -287 276 -45 12 -234 22 -274 15z"/> <path d="M3558 7581 c-76 -36 -102 -73 -118 -177 -8 -47 -11 -651 -11 -1978 0 -1833 4 -2327 21 -2371 14 -36 61 -85 104 -108 l41 -22 1573 -3 1573 -2 54 26 c39 18 64 39 88 72 l32 47 3 1697 2 1698 -22 5 c-13 3 -189 4 -393 3 l-370 -3 -80 39 c-94 47 -189 135 -223 209 -30 64 -33 108 -35 527 l-2 355 -1100 2 c-1027 1 -1102 0 -1137 -16z m2545 -1910 c23 -16 75 -63 115 -105 64 -68 72 -80 72 -115 0 -37 -9 -49 -107 -157 -114 -123 -142 -155 -335 -377 -66 -76 -126 -143 -132 -150 -15 -14 -256 -287 -364 -410 -42 -49 -92 -105 -111 -125 -18 -21 -50 -59 -71 -87 -20 -27 -76 -89 -123 -137 -81 -84 -87 -88 -129 -88 -39 0 -52 7 -109 54 -74 62 -182 168 -476 467 -259 263 -253 247 -140 366 39 42 83 88 97 101 36 35 86 54 123 46 31 -7 131 -101 360 -341 59 -62 113 -113 120 -113 7 0 29 21 49 48 77 98 106 132 223 266 66 75 137 158 158 184 22 26 69 79 106 117 65 67 249 270 350 385 26 30 56 68 67 84 10 16 45 49 77 73 74 54 118 57 180 14z"/> <path d="M6060 7162 l0 -339 33 -38 c31 -36 38 -39 97 -43 74 -5 224 18 176 27 -35 7 -32 24 4 27 13 2 32 13 41 26 16 21 18 21 24 5 9 -23 32 -22 40 2 6 19 43 31 100 31 20 0 35 6 39 15 3 8 15 15 27 15 19 0 18 4 -17 53 -46 64 -534 557 -551 557 -10 0 -13 -74 -13 -338z"/> <path d="M1913 7463 c-71 -77 -226 -356 -314 -568 -28 -66 -59 -139 -70 -163 -40 -88 -101 -293 -154 -516 -42 -178 -43 -193 -11 -208 32 -14 56 -4 56 22 0 45 43 230 76 325 19 55 48 147 65 205 60 204 156 419 292 653 14 23 50 90 81 149 53 102 55 108 37 118 -27 14 -29 13 -58 -17z"/> <path d="M8242 7478 c-18 -18 -15 -42 14 -83 36 -54 135 -216 145 -240 5 -11 19 -36 30 -55 57 -94 141 -273 180 -385 15 -44 44 -125 64 -180 33 -91 52 -157 118 -415 21 -80 24 -85 51 -88 43 -5 48 7 32 79 -8 35 -20 89 -26 119 -16 77 -79 311 -90 335 -5 11 -25 61 -45 110 -41 101 -39 97 -95 220 -23 50 -53 116 -66 147 -13 31 -37 79 -54 108 -16 28 -30 53 -30 55 0 6 -137 230 -159 262 -18 25 -50 30 -69 11z"/> <path d="M1103 5815 c-115 -31 -192 -91 -270 -208 -110 -166 -112 -397 -5 -555 68 -100 89 -122 162 -168 95 -60 129 -69 260 -69 102 1 122 4 180 28 132 55 233 155 297 295 23 49 26 71 27 162 1 112 -2 123 -63 250 -59 122 -179 228 -301 266 -58 18 -219 17 -287 -1z"/> <path d="M8856 5814 c-199 -49 -364 -242 -383 -448 -7 -81 12 -196 42 -254 84 -163 210 -264 367 -295 45 -10 102 -17 125 -17 115 0 318 109 383 205 90 134 100 163 100 292 0 110 -10 151 -63 263 -40 84 -150 195 -233 236 -53 26 -70 29 -169 31 -70 1 -131 -3 -169 -13z"/> <path d="M1373 4623 c-30 -6 -30 -26 2 -161 71 -297 107 -412 180 -572 29 -63 63 -140 75 -170 34 -83 99 -218 135 -280 50 -83 81 -139 117 -204 17 -32 38 -60 45 -63 8 -3 25 5 38 17 24 23 24 23 6 49 -10 14 -29 49 -42 76 -13 28 -63 124 -113 215 -130 240 -168 326 -237 535 -95 285 -128 397 -138 460 -19 113 -16 108 -68 98z"/> <path d="M8780 4585 c-5 -14 -14 -55 -20 -90 -18 -113 -73 -324 -102 -394 -10 -24 -34 -90 -52 -146 -19 -56 -39 -111 -45 -121 -5 -11 -38 -77 -72 -149 -69 -143 -130 -255 -195 -357 -24 -36 -50 -83 -59 -104 -14 -34 -14 -39 1 -56 10 -10 24 -18 33 -18 9 1 43 44 80 102 82 130 300 560 301 594 1 5 9 27 20 49 11 22 19 44 20 49 0 5 22 69 50 142 49 130 78 253 99 408 6 43 14 83 17 88 8 13 -15 28 -44 28 -15 0 -26 -8 -32 -25z"/> <path d="M2194 3051 c-165 -59 -308 -218 -344 -381 -44 -204 62 -454 237 -557 53 -31 193 -73 242 -73 81 0 222 37 284 74 197 116 302 393 224 591 -75 191 -172 293 -327 345 -19 7 -87 14 -150 15 -93 3 -125 0 -166 -14z"/> <path d="M7731 3051 c-76 -22 -103 -36 -156 -75 -97 -73 -175 -186 -212 -305 -39 -129 9 -337 103 -441 43 -48 148 -118 223 -149 46 -19 73 -23 170 -23 174 0 262 34 368 143 77 80 143 207 158 304 3 22 1 73 -4 113 -8 60 -18 89 -56 155 -56 97 -141 191 -208 230 -99 60 -273 81 -386 48z"/> <path d="M7175 2176 c-62 -48 -393 -225 -523 -280 -31 -13 -93 -41 -137 -61 -133 -62 -393 -147 -518 -170 -218 -40 -212 -38 -215 -63 -2 -13 1 -29 7 -35 14 -18 115 -6 231 27 52 15 120 34 150 42 30 9 73 21 95 29 22 7 87 27 145 45 58 17 114 35 125 40 184 77 258 112 353 166 160 91 353 215 359 230 6 16 -14 54 -30 54 -7 0 -25 -11 -42 -24z"/> <path d="M2992 2178 c-30 -30 -10 -50 159 -158 168 -108 282 -167 459 -238 185 -73 632 -214 722 -227 41 -6 48 -4 57 14 9 15 9 27 1 41 -6 11 -12 20 -14 20 -11 0 -206 42 -231 50 -235 73 -369 120 -460 162 -219 99 -442 211 -556 279 -64 38 -118 69 -121 69 -2 0 -9 -5 -16 -12z"/> <path d="M4980 1901 c-107 -23 -244 -126 -299 -223 -81 -143 -101 -280 -60 -414 51 -166 136 -265 289 -337 61 -29 73 -31 185 -31 138 -1 179 11 285 80 105 69 194 188 218 292 16 70 15 160 -1 247 -29 152 -178 317 -332 369 -56 18 -231 29 -285 17z"/> </g> </svg> 